# xmcd
#
# Track frame offsets:
#	150
#	11546
#	23248
#	37330
#	49326
#	62546
#	75766
#	91577
#	105798
#	121703
#	138342
#	152682
#	165290
#	177934
#	191054
#	205066
#
# Disc length: 2930 seconds
#
# Revision: 0
# Processed by: cddbd v1.5.2PL0 Copyright (c) Steve Scherf et al.
# Submitted via: EZCDAudioConverter 5.0.0.1
#
DISCID=b60b7010
DTITLE=Kapa Ahonen ja N‰‰svillen Veljekset - Pitk‰n Matkan Lauluja
DYEAR=1900
DGENRE=Kantri
TTITLE0=Vanha Rakkauslaulu
TTITLE1=Kun Pohjoisesta Tuulee
TTITLE2=Taksin Taustapeili
TTITLE3=Kilometri Maaliin
TTITLE4=Teksasin Kuu
TTITLE5=J‰‰ Toivo Auringoksi Meille
TTITLE6=Miss‰ Olet Maalaisidylli
TTITLE7=Kettusen Veljekset
TTITLE8=N‰‰svillen Blues
TTITLE9=Balladi Seilin Saaresta
TTITLE10=Ruutupaita ja Mandoliini
TTITLE11=Viel‰ Yksi Laulu
TTITLE12=Syyt‰ Syd‰nt‰si
TTITLE13=Kantrin Kaipuu
TTITLE14=Oregonin Tie
TTITLE15=Viimeinen L‰tt‰hattu Lieksaan
EXTD=
EXTT0=
EXTT1=
EXTT2=
EXTT3=
EXTT4=
EXTT5=
EXTT6=
EXTT7=
EXTT8=
EXTT9=
EXTT10=
EXTT11=
EXTT12=
EXTT13=
EXTT14=
EXTT15=
PLAYORDER=
